<svg xmlns="http://www.w3.org/2000/svg" viewBox="-282.269145 -361.5 858.723686 829.653718">
  <g fill="crimson" opacity="0.25">
    <circle cx="300" r="60"/>
    <path d="M-240 0A180 180 0 0 1 120 0 180 180 0 0 0 480 0 360 360 0 0 1-240 0ZM0 0A60 60 0 0 0-120 0 60 60 0 0 0 0 0Z"/>
  </g>
  <g fill="none" stroke="#000" stroke-linecap="round" stroke-linejoin="round">
    <circle r="60"/>
    <circle cx="60" r="60"/>
    <circle cx="30" cy="51.961524" r="103.923048"/>
    <circle cx="-60" r="180"/>
    <circle cx="120" r="180"/>
    <circle cx="30" cy="155.884573" r="311.769145"/>
    <circle cx="300" r="180"/>
    <circle cx="300" r="274.954541"/>
    <circle cx="90" cy="177.482393" r="232.379001"/>
    <g stroke="crimson" stroke-width="3">
      <circle cx="-60" r="60"/>
      <circle cx="300" r="60"/>
      <circle cx="120" r="360"/>
      <path d="M-240 0A180 180 0 0 1 120 0 180 180 0 0 0 480 0"/>
    </g>
  </g>
  <circle r="3"/>
  <circle cx="60" r="3"/>
</svg>
